<svg width="32" height="33" viewBox="0 0 32 33" fill="none" xmlns="http://www.w3.org/2000/svg">
<g clip-path="url(#clip0_4_30)">
<path fill-rule="evenodd" clip-rule="evenodd" d="M20 25.5H4C3.204 25.5 2.441 25.184 1.879 24.621C1.316 24.059 1 23.296 1 22.5C1 19.037 1 11.963 1 8.5C1 7.704 1.316 6.941 1.879 6.379C2.441 5.816 3.204 5.5 4 5.5C9.154 5.5 22.846 5.5 28 5.5C28.796 5.5 29.559 5.816 30.121 6.379C30.684 6.941 31 7.704 31 8.5C31 11.963 31 19.037 31 22.5C31 23.296 30.684 24.059 30.121 24.621C29.559 25.184 28.796 25.5 28 25.5H26V26.5C26 26.904 25.756 27.269 25.383 27.424C25.009 27.579 24.579 27.493 24.293 27.207L23 25.914L21.707 27.207C21.421 27.493 20.991 27.579 20.617 27.424C20.244 27.269 20 26.904 20 26.5V25.5ZM22 19.374V24.086L22.293 23.793C22.683 23.402 23.317 23.402 23.707 23.793L24 24.086V19.374C23.68 19.456 23.345 19.5 23 19.5C22.655 19.5 22.32 19.456 22 19.374ZM26 23.5H28C28.265 23.5 28.52 23.395 28.707 23.207C28.895 23.02 29 22.765 29 22.5C29 19.037 29 11.963 29 8.5C29 8.235 28.895 7.98 28.707 7.793C28.52 7.605 28.265 7.5 28 7.5C22.846 7.5 9.154 7.5 4 7.5C3.735 7.5 3.48 7.605 3.293 7.793C3.105 7.98 3 8.235 3 8.5C3 11.963 3 19.037 3 22.5C3 22.765 3.105 23.02 3.293 23.207C3.48 23.395 3.735 23.5 4 23.5H20V18.145C19.378 17.44 19 16.514 19 15.5C19 13.292 20.792 11.5 23 11.5C25.208 11.5 27 13.292 27 15.5C27 16.514 26.622 17.44 26 18.145V23.5ZM6 18.5H16C16.552 18.5 17 18.052 17 17.5C17 16.948 16.552 16.5 16 16.5H6C5.448 16.5 5 16.948 5 17.5C5 18.052 5.448 18.5 6 18.5ZM23 13.5C24.104 13.5 25 14.396 25 15.5C25 16.604 24.104 17.5 23 17.5C21.896 17.5 21 16.604 21 15.5C21 14.396 21.896 13.5 23 13.5ZM6 14.5H13C13.552 14.5 14 14.052 14 13.5C14 12.948 13.552 12.5 13 12.5H6C5.448 12.5 5 12.948 5 13.5C5 14.052 5.448 14.5 6 14.5Z" fill="white"/>
</g>
<defs>
<clipPath id="clip0_4_30">
<rect width="32" height="32" fill="white" transform="translate(0 0.5)"/>
</clipPath>
</defs>
</svg>
