<?xml version="1.0" standalone="no"?>
<!DOCTYPE svg PUBLIC "-//W3C//DTD SVG 20010904//EN"
 "http://www.w3.org/TR/2001/REC-SVG-20010904/DTD/svg10.dtd">
<svg version="1.0" xmlns="http://www.w3.org/2000/svg"
 width="512.000000pt" height="512.000000pt" viewBox="0 0 512.000000 512.000000"
 preserveAspectRatio="xMidYMid meet">

<g transform="translate(0.000000,512.000000) scale(0.100000,-0.100000)"
fill="#000000" stroke="none">
<path d="M600 4944 c-83 -30 -149 -91 -181 -170 -19 -46 -27 -54 -75 -73 -66
-28 -129 -88 -157 -149 -33 -73 -31 -189 6 -263 33 -69 99 -132 175 -167 56
-26 62 -27 252 -27 248 0 301 7 345 46 50 44 59 97 59 344 1 207 1 211 -26
267 -35 75 -98 142 -164 174 -69 34 -169 42 -234 18z m158 -204 c21 -13 41
-38 54 -67 19 -43 20 -61 16 -205 -3 -87 -8 -162 -12 -165 -3 -4 -77 -8 -164
-11 -144 -4 -163 -3 -205 16 -81 36 -112 122 -63 178 19 23 34 29 91 35 92 9
115 32 124 124 6 57 12 72 35 91 34 30 80 31 124 4z"/>
<path d="M2490 4944 c-70 -30 -126 -108 -170 -235 -16 -44 -30 -83 -33 -85 -2
-2 -42 13 -88 35 -144 66 -224 76 -299 39 -115 -58 -129 -191 -40 -376 22 -46
38 -87 36 -89 -2 -3 -40 -17 -84 -32 -94 -33 -187 -92 -219 -140 -42 -63 -42
-139 0 -202 32 -48 125 -107 219 -140 44 -15 82 -29 84 -32 2 -2 -14 -43 -36
-89 -89 -185 -75 -318 40 -375 75 -38 155 -28 299 38 46 22 86 37 88 35 3 -2
17 -41 33 -85 30 -87 78 -170 116 -200 23 -18 24 -24 24 -145 0 -69 -2 -126
-4 -126 -2 0 -23 11 -47 25 -52 29 -156 55 -219 55 -71 0 -160 -25 -187 -53
-52 -52 -47 -223 10 -339 l33 -67 -361 -3 -360 -3 -67 -33 c-77 -38 -130 -92
-167 -171 -22 -47 -26 -70 -26 -141 0 -99 26 -168 90 -239 47 -52 145 -100
217 -108 l56 -6 129 -648 130 -649 -74 0 c-44 0 -85 -6 -102 -14 -66 -35 -66
-137 0 -172 42 -21 2056 -21 2098 0 66 35 66 137 0 172 -17 8 -58 14 -104 14
-73 0 -75 1 -70 23 5 19 255 1269 255 1273 0 1 26 4 57 7 73 8 171 56 218 108
64 71 90 140 90 239 0 71 -4 94 -26 141 -37 79 -90 133 -167 171 l-67 33 -360
3 -361 3 35 71 c33 66 36 79 39 177 4 152 -17 181 -146 203 -109 18 -197 0
-334 -70 -5 -2 -8 52 -8 121 l0 124 38 39 c40 43 92 141 113 214 7 25 15 48
19 53 3 4 44 -10 91 -32 140 -66 224 -77 299 -38 115 58 128 184 39 376 -39
83 -41 101 -13 101 28 0 164 59 210 91 83 57 120 145 94 224 -25 76 -139 158
-270 196 -25 7 -48 15 -53 19 -4 3 10 44 32 91 89 192 76 318 -39 377 -75 38
-159 27 -299 -39 -47 -22 -88 -36 -91 -32 -4 5 -12 28 -19 53 -18 63 -68 162
-102 203 -56 68 -146 93 -219 61z m93 -231 c22 -43 55 -150 72 -233 18 -84 41
-116 92 -126 29 -5 46 1 117 45 81 49 188 102 234 116 21 6 23 4 17 -17 -14
-49 -78 -174 -118 -232 -74 -109 -52 -184 62 -206 83 -16 243 -67 266 -85 20
-15 20 -15 1 -30 -25 -19 -152 -61 -246 -80 -84 -18 -116 -41 -126 -90 -6 -35
5 -63 56 -138 31 -46 93 -173 105 -215 6 -21 4 -23 -17 -17 -46 14 -153 67
-234 116 -71 44 -88 50 -117 45 -51 -10 -74 -42 -92 -126 -27 -130 -74 -260
-95 -260 -21 0 -67 126 -95 260 -18 84 -41 116 -90 126 -35 6 -63 -5 -138 -56
-46 -31 -173 -93 -215 -105 -21 -6 -23 -4 -17 17 14 46 67 153 116 234 44 71
50 88 45 117 -10 51 -42 74 -126 92 -94 19 -221 61 -246 80 -19 15 -19 15 0
30 25 19 152 61 246 80 84 18 116 41 126 92 5 29 -1 46 -45 117 -49 81 -102
188 -116 234 -6 21 -4 23 17 17 42 -12 169 -74 215 -105 75 -51 103 -62 138
-56 49 10 72 42 90 126 28 134 74 260 95 260 5 0 16 -12 23 -27z m-261 -2130
c69 -38 118 -106 133 -186 l7 -37 -36 0 c-55 0 -138 36 -178 77 -42 43 -77
115 -78 157 0 29 0 29 50 23 28 -3 74 -19 102 -34z m628 10 c0 -46 -44 -127
-90 -166 -47 -40 -115 -67 -168 -67 -34 0 -34 0 -27 38 21 118 135 218 253
221 29 1 32 -2 32 -26z m828 -452 c43 -22 82 -84 82 -131 0 -47 -39 -109 -82
-131 -36 -18 -78 -19 -1219 -19 l-1181 0 -40 22 c-101 57 -102 194 -2 254 l39
24 1183 0 c1142 0 1184 -1 1220 -19z m-341 -731 l-50 -250 -217 0 -217 0 -36
74 c-44 89 -103 146 -195 189 -61 29 -76 32 -162 32 -86 0 -101 -3 -162 -32
-92 -43 -151 -100 -195 -189 l-36 -74 -219 0 c-120 0 -218 1 -218 3 0 5 -89
449 -95 475 l-5 22 928 0 929 0 -50 -250z m-1234 -524 c44 -89 103 -146 195
-189 61 -29 76 -32 163 -32 90 0 99 2 171 37 90 45 148 103 190 194 l30 64
197 0 198 0 -60 -300 -60 -300 -668 0 c-368 0 -669 1 -669 3 0 5 -109 549
-115 575 l-5 22 198 0 199 0 36 -74z"/>
<path d="M2463 4242 c-251 -90 -272 -432 -35 -549 81 -40 183 -40 264 0 107
53 163 144 163 267 0 85 -21 142 -74 203 -72 81 -213 117 -318 79z"/>
<path d="M4333 4946 c-136 -44 -227 -165 -242 -324 -7 -72 1 -289 15 -392 4
-33 15 -53 43 -81 47 -47 88 -54 351 -54 190 0 196 1 252 27 76 35 142 98 175
167 37 75 40 192 6 261 -32 64 -96 125 -158 151 -47 19 -55 27 -74 75 -28 65
-82 123 -145 154 -59 28 -163 36 -223 16z m158 -215 c25 -26 29 -37 29 -85 0
-47 4 -61 28 -87 24 -27 37 -32 96 -38 59 -6 73 -12 94 -36 19 -23 23 -36 19
-67 -13 -97 -71 -128 -237 -128 -63 0 -138 3 -166 6 l-52 7 -7 63 c-14 131 -8
258 13 308 38 85 127 112 183 57z"/>
<path d="M842 3904 c-64 -32 -116 -91 -138 -157 -14 -42 -16 -78 -12 -213 8
-250 20 -261 290 -266 161 -3 164 -3 220 25 123 60 183 187 146 309 -15 51
-78 122 -128 144 -24 11 -41 26 -45 41 -8 35 -75 104 -120 124 -61 28 -149 25
-213 -7z m148 -224 c10 -82 38 -110 108 -110 47 0 67 -19 58 -56 -12 -46 -112
-67 -228 -48 l-38 7 0 106 c0 126 12 154 63 149 30 -3 32 -6 37 -48z"/>
<path d="M4065 3911 c-46 -21 -112 -89 -121 -125 -4 -17 -17 -29 -38 -36 -76
-25 -146 -131 -146 -220 0 -96 70 -199 162 -241 49 -22 64 -24 215 -23 144 2
167 4 207 23 72 35 80 63 81 271 0 171 -1 176 -27 225 -32 62 -70 98 -128 124
-58 26 -150 27 -205 2z m141 -195 c16 -12 19 -29 22 -129 l4 -114 -39 -6 c-68
-12 -163 -8 -193 8 -34 17 -49 58 -30 80 7 9 29 15 52 15 67 0 108 45 108 120
0 15 3 30 7 33 11 12 48 8 69 -7z"/>
</g>
</svg>
