<?xml version="1.0" standalone="no"?>
<!DOCTYPE svg PUBLIC "-//W3C//DTD SVG 20010904//EN"
 "http://www.w3.org/TR/2001/REC-SVG-20010904/DTD/svg10.dtd">
<svg version="1.0" xmlns="http://www.w3.org/2000/svg"
 width="512.000000pt" height="512.000000pt" viewBox="0 0 512.000000 512.000000"
 preserveAspectRatio="xMidYMid meet">

<g transform="translate(0.000000,512.000000) scale(0.100000,-0.100000)"
fill="#000000" stroke="none">
<path d="M2315 5109 c-798 -81 -1501 -518 -1927 -1196 -606 -964 -489 -2247
282 -3077 425 -457 947 -728 1575 -818 119 -17 512 -16 635 1 665 92 1240 412
1665 926 241 292 446 719 519 1087 43 212 51 294 51 528 0 301 -32 513 -116
775 -200 626 -634 1153 -1214 1472 -259 143 -560 243 -870 289 -122 18 -477
26 -600 13z m460 -99 c572 -54 1075 -282 1482 -673 419 -403 661 -881 745
-1472 16 -117 16 -493 0 -610 -58 -403 -184 -741 -397 -1060 -187 -281 -465
-550 -751 -727 -684 -423 -1543 -484 -2277 -163 -752 329 -1295 1018 -1437
1820 -121 684 42 1365 459 1920 97 128 288 325 416 428 496 400 1136 595 1760
537z"/>
<path d="M2430 4404 c-14 -2 -56 -9 -95 -15 -304 -49 -617 -241 -809 -496
-174 -232 -260 -493 -259 -788 2 -411 191 -783 525 -1033 l88 -65 2 -619 3
-620 33 -29 c63 -56 63 -56 407 200 127 94 232 171 235 171 3 0 109 -77 235
-171 344 -256 344 -256 407 -200 l33 29 3 620 2 620 83 60 c258 187 442 475
508 795 27 129 29 340 6 473 -92 519 -485 927 -1007 1045 -81 19 -340 34 -400
23z m390 -123 c548 -125 930 -601 933 -1161 1 -333 -115 -613 -352 -851 -349
-351 -865 -447 -1322 -249 -245 106 -466 317 -589 560 -145 287 -164 641 -51
951 142 389 508 693 911 759 41 6 82 13 90 15 42 11 302 -6 380 -24z m-776
-2356 l56 -25 0 -378 c0 -325 2 -381 16 -400 8 -12 24 -22 35 -22 11 0 105 63
209 140 104 77 195 140 201 140 6 0 96 -63 199 -140 104 -77 197 -140 209
-140 11 0 27 10 35 22 14 19 16 75 16 400 l0 378 57 25 c31 14 58 24 60 22 2
-2 2 -258 1 -570 l-3 -565 -280 208 c-154 115 -286 209 -293 210 -10 0 -322
-226 -549 -398 l-33 -24 0 571 c0 314 2 571 4 571 2 0 29 -11 60 -25z m315
-90 c127 -21 343 -17 469 10 46 10 85 15 88 13 2 -3 3 -141 2 -306 l-3 -302
-168 125 c-93 69 -177 125 -187 125 -10 0 -89 -53 -176 -118 -88 -65 -165
-121 -171 -125 -10 -7 -13 56 -13 299 l0 306 28 -5 c15 -2 74 -12 131 -22z"/>
<path d="M2469 4079 c-233 -20 -451 -127 -617 -305 -354 -378 -349 -959 12
-1332 90 -94 169 -151 288 -207 139 -66 243 -88 408 -88 165 0 269 22 408 88
122 58 199 114 293 212 187 196 279 440 266 708 -7 130 -23 210 -63 314 -130
328 -459 581 -789 607 -38 3 -81 6 -95 8 -14 1 -64 -1 -111 -5z m249 -110
c250 -39 500 -225 617 -459 123 -244 126 -540 8 -774 -120 -241 -330 -409
-590 -473 -102 -25 -304 -22 -408 6 -308 82 -545 319 -631 631 -26 93 -26 328
0 425 56 213 192 401 372 518 190 123 394 164 632 126z"/>
<path d="M2430 3766 c-135 -23 -255 -48 -267 -54 -37 -20 -43 -45 -43 -164 0
-112 1 -115 28 -141 23 -22 40 -28 100 -33 l72 -7 0 -267 0 -267 -62 -7 c-69
-8 -112 -27 -128 -55 -5 -11 -10 -72 -10 -136 0 -115 0 -117 29 -146 l29 -29
382 0 382 0 29 29 c29 29 29 30 29 151 0 120 0 122 -28 150 -23 23 -40 29
-100 35 l-72 7 0 455 0 455 -34 34 c-24 24 -43 34 -62 33 -16 -1 -139 -20
-274 -43z m270 -540 l0 -483 78 -7 c129 -12 122 -6 122 -97 l0 -79 -340 0
-340 0 0 79 0 79 33 6 c17 3 62 8 100 12 l67 7 0 363 0 363 -97 3 -98 3 -3 77
-3 76 93 17 c172 30 363 63 376 64 9 1 12 -102 12 -483z"/>
</g>
</svg>
