<svg width="32" height="33" viewBox="0 0 32 33" fill="none" xmlns="http://www.w3.org/2000/svg">
<g clip-path="url(#clip0_4_24)">
<path fill-rule="evenodd" clip-rule="evenodd" d="M14.343 31.5H7C5.343 31.5 4 30.157 4 28.5V20.169C4 18.719 5.037 17.477 6.463 17.218C8.577 16.833 12.222 16.17 14.284 15.796C15.419 15.589 16.581 15.589 17.716 15.796C19.778 16.17 23.423 16.833 25.537 17.218C26.963 17.477 28 18.719 28 20.169C28 22.35 28 26.166 28 28.5C28 30.157 26.657 31.5 25 31.5H14.343ZM23.828 18.94L23.832 18.945C24.007 19.207 24.048 19.536 23.943 19.833L23.237 21.833C23.145 22.094 22.948 22.306 22.694 22.417L21.366 22.996L21.894 24.053C22.042 24.348 22.034 24.697 21.874 24.986L19.366 29.5H25C25.552 29.5 26 29.052 26 28.5C26 26.166 26 22.35 26 20.169C26 19.686 25.654 19.272 25.179 19.185L23.828 18.94ZM21.093 18.442L17.358 17.763C16.46 17.6 15.54 17.6 14.642 17.763L10.907 18.442L10.109 19.639L10.504 20.757L12.4 21.583C12.651 21.693 12.846 21.901 12.94 22.159C13.034 22.417 13.017 22.702 12.894 22.947L12.13 24.475L14.922 29.5H17.078L19.87 24.475L19.106 22.947C18.983 22.702 18.966 22.417 19.06 22.159C19.154 21.901 19.349 21.693 19.6 21.583L21.496 20.757L21.891 19.639L21.093 18.442ZM8.172 18.94L6.821 19.185C6.346 19.272 6 19.686 6 20.169V28.5C6 29.052 6.448 29.5 7 29.5H12.634L10.126 24.986C9.966 24.697 9.958 24.348 10.106 24.053L10.634 22.996L9.306 22.417C9.052 22.306 8.855 22.094 8.763 21.833L8.057 19.833C7.952 19.536 7.993 19.207 8.168 18.945L8.172 18.94ZM23 24.5V26.5C23 27.052 23.448 27.5 24 27.5C24.552 27.5 25 27.052 25 26.5V24.5C25 23.948 24.552 23.5 24 23.5C23.448 23.5 23 23.948 23 24.5ZM16 1.5C12.413 1.5 9.5 4.413 9.5 8C9.5 11.587 12.413 14.5 16 14.5C19.587 14.5 22.5 11.587 22.5 8C22.5 4.413 19.587 1.5 16 1.5ZM16 3.5C18.484 3.5 20.5 5.516 20.5 8C20.5 10.484 18.484 12.5 16 12.5C13.516 12.5 11.5 10.484 11.5 8C11.5 5.516 13.516 3.5 16 3.5Z" fill="white"/>
</g>
<defs>
<clipPath id="clip0_4_24">
<rect width="32" height="32" fill="white" transform="translate(0 0.5)"/>
</clipPath>
</defs>
</svg>
