<svg width="32" height="33" viewBox="0 0 32 33" fill="none" xmlns="http://www.w3.org/2000/svg">
<g clip-path="url(#clip0_4_27)">
<path fill-rule="evenodd" clip-rule="evenodd" d="M4 28.5C4 30.157 5.343 31.5 7 31.5H25C26.657 31.5 28 30.157 28 28.5C28 26.166 28 22.35 28 20.169C28 18.719 26.963 17.477 25.537 17.218C23.423 16.833 19.778 16.17 17.716 15.796C16.581 15.589 15.419 15.589 14.284 15.796C12.222 16.17 8.577 16.833 6.463 17.218C5.037 17.477 4 18.719 4 20.169V28.5ZM18.308 17.936L19.809 23.643C20.006 24.392 19.742 25.187 19.136 25.671C18.624 26.079 17.817 26.723 17.257 27.171C16.522 27.757 15.478 27.757 14.743 27.171C14.183 26.723 13.376 26.079 12.864 25.671C12.258 25.187 11.994 24.392 12.191 23.643L13.692 17.936L6.821 19.185C6.346 19.272 6 19.686 6 20.169V28.5C6 29.052 6.448 29.5 7 29.5C11.184 29.5 20.816 29.5 25 29.5C25.552 29.5 26 29.052 26 28.5C26 26.166 26 22.35 26 20.169C26 19.686 25.654 19.272 25.179 19.185L18.308 17.936ZM16.163 17.643C16.054 17.64 15.946 17.64 15.837 17.643L14.133 24.125L15.991 25.607C15.996 25.612 16.004 25.612 16.009 25.607L17.867 24.125L16.163 17.643ZM16 1.5C12.413 1.5 9.5 4.413 9.5 8C9.5 11.587 12.413 14.5 16 14.5C19.587 14.5 22.5 11.587 22.5 8C22.5 4.413 19.587 1.5 16 1.5ZM16 3.5C18.484 3.5 20.5 5.516 20.5 8C20.5 10.484 18.484 12.5 16 12.5C13.516 12.5 11.5 10.484 11.5 8C11.5 5.516 13.516 3.5 16 3.5Z" fill="white"/>
</g>
<defs>
<clipPath id="clip0_4_27">
<rect width="32" height="32" fill="white" transform="translate(0 0.5)"/>
</clipPath>
</defs>
</svg>
